<svg width="500" height="60" viewBox="0 0 500 60" fill="none" xmlns="http://www.w3.org/2000/svg">
<path d="M375 0H497C498.657 0 500 1.34315 500 3V47C500 48.6569 498.657 50 497 50H375V0Z" fill="white" fill-opacity="0.28"/>
<path d="M0 3C0 1.34315 1.34315 0 3 0H375V50H3.00001C1.34315 50 0 48.6569 0 47V3Z" fill="white"/>
<path d="M41.4102 28.0801V29H36.8926V28.0801H41.4102ZM37.1211 20.4688V29H35.9902V20.4688H37.1211ZM40.8125 24.1367V25.0566H36.8926V24.1367H40.8125ZM41.3516 20.4688V21.3945H36.8926V20.4688H41.3516ZM43.7305 24.0137V29H42.6465V22.6602H43.6719L43.7305 24.0137ZM43.4727 25.5898L43.0215 25.5723C43.0254 25.1387 43.0898 24.7383 43.2148 24.3711C43.3398 24 43.5156 23.6777 43.7422 23.4043C43.9688 23.1309 44.2383 22.9199 44.5508 22.7715C44.8672 22.6191 45.2168 22.543 45.5996 22.543C45.9121 22.543 46.1934 22.5859 46.4434 22.6719C46.6934 22.7539 46.9062 22.8867 47.082 23.0703C47.2617 23.2539 47.3984 23.4922 47.4922 23.7852C47.5859 24.0742 47.6328 24.4277 47.6328 24.8457V29H46.543V24.834C46.543 24.502 46.4941 24.2363 46.3965 24.0371C46.2988 23.834 46.1562 23.6875 45.9688 23.5977C45.7812 23.5039 45.5508 23.457 45.2773 23.457C45.0078 23.457 44.7617 23.5137 44.5391 23.627C44.3203 23.7402 44.1309 23.8965 43.9707 24.0957C43.8145 24.2949 43.6914 24.5234 43.6016 24.7812C43.5156 25.0352 43.4727 25.3047 43.4727 25.5898ZM51.9336 22.6602V23.4922H48.5059V22.6602H51.9336ZM49.666 21.1191H50.75V27.4297C50.75 27.6445 50.7832 27.8066 50.8496 27.916C50.916 28.0254 51.002 28.0977 51.1074 28.1328C51.2129 28.168 51.3262 28.1855 51.4473 28.1855C51.5371 28.1855 51.6309 28.1777 51.7285 28.1621C51.8301 28.1426 51.9062 28.127 51.957 28.1152L51.9629 29C51.877 29.0273 51.7637 29.0527 51.623 29.0762C51.4863 29.1035 51.3203 29.1172 51.125 29.1172C50.8594 29.1172 50.6152 29.0645 50.3926 28.959C50.1699 28.8535 49.9922 28.6777 49.8594 28.4316C49.7305 28.1816 49.666 27.8457 49.666 27.4238V21.1191ZM55.8359 29.1172C55.3945 29.1172 54.9941 29.043 54.6348 28.8945C54.2793 28.7422 53.9727 28.5293 53.7148 28.2559C53.4609 27.9824 53.2656 27.6582 53.1289 27.2832C52.9922 26.9082 52.9238 26.498 52.9238 26.0527V25.8066C52.9238 25.291 53 24.832 53.1523 24.4297C53.3047 24.0234 53.5117 23.6797 53.7734 23.3984C54.0352 23.1172 54.332 22.9043 54.6641 22.7598C54.9961 22.6152 55.3398 22.543 55.6953 22.543C56.1484 22.543 56.5391 22.6211 56.8672 22.7773C57.1992 22.9336 57.4707 23.1523 57.6816 23.4336C57.8926 23.7109 58.0488 24.0391 58.1504 24.418C58.252 24.793 58.3027 25.2031 58.3027 25.6484V26.1348H53.5684V25.25H57.2188V25.168C57.2031 24.8867 57.1445 24.6133 57.043 24.3477C56.9453 24.082 56.7891 23.8633 56.5742 23.6914C56.3594 23.5195 56.0664 23.4336 55.6953 23.4336C55.4492 23.4336 55.2227 23.4863 55.0156 23.5918C54.8086 23.6934 54.6309 23.8457 54.4824 24.0488C54.334 24.252 54.2188 24.5 54.1367 24.793C54.0547 25.0859 54.0137 25.4238 54.0137 25.8066V26.0527C54.0137 26.3535 54.0547 26.6367 54.1367 26.9023C54.2227 27.1641 54.3457 27.3945 54.5059 27.5938C54.6699 27.793 54.8672 27.9492 55.0977 28.0625C55.332 28.1758 55.5977 28.2324 55.8945 28.2324C56.2773 28.2324 56.6016 28.1543 56.8672 27.998C57.1328 27.8418 57.3652 27.6328 57.5645 27.3711L58.2207 27.8926C58.084 28.0996 57.9102 28.2969 57.6992 28.4844C57.4883 28.6719 57.2285 28.8242 56.9199 28.9414C56.6152 29.0586 56.2539 29.1172 55.8359 29.1172ZM60.6523 23.6562V29H59.5684V22.6602H60.623L60.6523 23.6562ZM62.6328 22.625L62.627 23.6328C62.5371 23.6133 62.4512 23.6016 62.3691 23.5977C62.291 23.5898 62.2012 23.5859 62.0996 23.5859C61.8496 23.5859 61.6289 23.625 61.4375 23.7031C61.2461 23.7812 61.084 23.8906 60.9512 24.0312C60.8184 24.1719 60.7129 24.3398 60.6348 24.5352C60.5605 24.7266 60.5117 24.9375 60.4883 25.168L60.1836 25.3438C60.1836 24.9609 60.2207 24.6016 60.2949 24.2656C60.373 23.9297 60.4922 23.6328 60.6523 23.375C60.8125 23.1133 61.0156 22.9102 61.2617 22.7656C61.5117 22.6172 61.8086 22.543 62.1523 22.543C62.2305 22.543 62.3203 22.5527 62.4219 22.5723C62.5234 22.5879 62.5938 22.6055 62.6328 22.625ZM68.3926 28.3438L70.1562 22.6602H71.3164L68.7734 29.9785C68.7148 30.1348 68.6367 30.3027 68.5391 30.4824C68.4453 30.666 68.3242 30.8398 68.1758 31.0039C68.0273 31.168 67.8477 31.3008 67.6367 31.4023C67.4297 31.5078 67.1816 31.5605 66.8926 31.5605C66.8066 31.5605 66.6973 31.5488 66.5645 31.5254C66.4316 31.502 66.3379 31.4824 66.2832 31.4668L66.2773 30.5879C66.3086 30.5918 66.3574 30.5957 66.4238 30.5996C66.4941 30.6074 66.543 30.6113 66.5703 30.6113C66.8164 30.6113 67.0254 30.5781 67.1973 30.5117C67.3691 30.4492 67.5137 30.3418 67.6309 30.1895C67.752 30.041 67.8555 29.8359 67.9414 29.5742L68.3926 28.3438ZM67.0977 22.6602L68.7441 27.582L69.0254 28.7246L68.2461 29.123L65.9141 22.6602H67.0977ZM71.9141 25.9004V25.7656C71.9141 25.3086 71.9805 24.8848 72.1133 24.4941C72.2461 24.0996 72.4375 23.7578 72.6875 23.4688C72.9375 23.1758 73.2402 22.9492 73.5957 22.7891C73.9512 22.625 74.3496 22.543 74.791 22.543C75.2363 22.543 75.6367 22.625 75.9922 22.7891C76.3516 22.9492 76.6562 23.1758 76.9062 23.4688C77.1602 23.7578 77.3535 24.0996 77.4863 24.4941C77.6191 24.8848 77.6855 25.3086 77.6855 25.7656V25.9004C77.6855 26.3574 77.6191 26.7812 77.4863 27.1719C77.3535 27.5625 77.1602 27.9043 76.9062 28.1973C76.6562 28.4863 76.3535 28.7129 75.998 28.877C75.6465 29.0371 75.248 29.1172 74.8027 29.1172C74.3574 29.1172 73.957 29.0371 73.6016 28.877C73.2461 28.7129 72.9414 28.4863 72.6875 28.1973C72.4375 27.9043 72.2461 27.5625 72.1133 27.1719C71.9805 26.7812 71.9141 26.3574 71.9141 25.9004ZM72.998 25.7656V25.9004C72.998 26.2168 73.0352 26.5156 73.1094 26.7969C73.1836 27.0742 73.2949 27.3203 73.4434 27.5352C73.5957 27.75 73.7852 27.9199 74.0117 28.0449C74.2383 28.166 74.502 28.2266 74.8027 28.2266C75.0996 28.2266 75.3594 28.166 75.582 28.0449C75.8086 27.9199 75.9961 27.75 76.1445 27.5352C76.293 27.3203 76.4043 27.0742 76.4785 26.7969C76.5566 26.5156 76.5957 26.2168 76.5957 25.9004V25.7656C76.5957 25.4531 76.5566 25.1582 76.4785 24.8809C76.4043 24.5996 76.291 24.3516 76.1387 24.1367C75.9902 23.918 75.8027 23.7461 75.5762 23.6211C75.3535 23.4961 75.0918 23.4336 74.791 23.4336C74.4941 23.4336 74.2324 23.4961 74.0059 23.6211C73.7832 23.7461 73.5957 23.918 73.4434 24.1367C73.2949 24.3516 73.1836 24.5996 73.1094 24.8809C73.0352 25.1582 72.998 25.4531 72.998 25.7656ZM82.9238 27.5352V22.6602H84.0137V29H82.9766L82.9238 27.5352ZM83.1289 26.1992L83.5801 26.1875C83.5801 26.6094 83.5352 27 83.4453 27.3594C83.3594 27.7148 83.2188 28.0234 83.0234 28.2852C82.8281 28.5469 82.5723 28.752 82.2559 28.9004C81.9395 29.0449 81.5547 29.1172 81.1016 29.1172C80.793 29.1172 80.5098 29.0723 80.252 28.9824C79.998 28.8926 79.7793 28.7539 79.5957 28.5664C79.4121 28.3789 79.2695 28.1348 79.168 27.834C79.0703 27.5332 79.0215 27.1719 79.0215 26.75V22.6602H80.1055V26.7617C80.1055 27.0469 80.1367 27.2832 80.1992 27.4707C80.2656 27.6543 80.3535 27.8008 80.4629 27.9102C80.5762 28.0156 80.7012 28.0898 80.8379 28.1328C80.9785 28.1758 81.123 28.1973 81.2715 28.1973C81.7324 28.1973 82.0977 28.1094 82.3672 27.9336C82.6367 27.7539 82.8301 27.5137 82.9473 27.2129C83.0684 26.9082 83.1289 26.5703 83.1289 26.1992ZM86.75 23.6562V29H85.666V22.6602H86.7207L86.75 23.6562ZM88.7305 22.625L88.7246 23.6328C88.6348 23.6133 88.5488 23.6016 88.4668 23.5977C88.3887 23.5898 88.2988 23.5859 88.1973 23.5859C87.9473 23.5859 87.7266 23.625 87.5352 23.7031C87.3438 23.7812 87.1816 23.8906 87.0488 24.0312C86.916 24.1719 86.8105 24.3398 86.7324 24.5352C86.6582 24.7266 86.6094 24.9375 86.5859 25.168L86.2812 25.3438C86.2812 24.9609 86.3184 24.6016 86.3926 24.2656C86.4707 23.9297 86.5898 23.6328 86.75 23.375C86.9102 23.1133 87.1133 22.9102 87.3594 22.7656C87.6094 22.6172 87.9062 22.543 88.25 22.543C88.3281 22.543 88.418 22.5527 88.5195 22.5723C88.6211 22.5879 88.6914 22.6055 88.7305 22.625ZM95.3398 29.1172C94.8984 29.1172 94.498 29.043 94.1387 28.8945C93.7832 28.7422 93.4766 28.5293 93.2188 28.2559C92.9648 27.9824 92.7695 27.6582 92.6328 27.2832C92.4961 26.9082 92.4277 26.498 92.4277 26.0527V25.8066C92.4277 25.291 92.5039 24.832 92.6562 24.4297C92.8086 24.0234 93.0156 23.6797 93.2773 23.3984C93.5391 23.1172 93.8359 22.9043 94.168 22.7598C94.5 22.6152 94.8438 22.543 95.1992 22.543C95.6523 22.543 96.043 22.6211 96.3711 22.7773C96.7031 22.9336 96.9746 23.1523 97.1855 23.4336C97.3965 23.7109 97.5527 24.0391 97.6543 24.418C97.7559 24.793 97.8066 25.2031 97.8066 25.6484V26.1348H93.0723V25.25H96.7227V25.168C96.707 24.8867 96.6484 24.6133 96.5469 24.3477C96.4492 24.082 96.293 23.8633 96.0781 23.6914C95.8633 23.5195 95.5703 23.4336 95.1992 23.4336C94.9531 23.4336 94.7266 23.4863 94.5195 23.5918C94.3125 23.6934 94.1348 23.8457 93.9863 24.0488C93.8379 24.252 93.7227 24.5 93.6406 24.793C93.5586 25.0859 93.5176 25.4238 93.5176 25.8066V26.0527C93.5176 26.3535 93.5586 26.6367 93.6406 26.9023C93.7266 27.1641 93.8496 27.3945 94.0098 27.5938C94.1738 27.793 94.3711 27.9492 94.6016 28.0625C94.8359 28.1758 95.1016 28.2324 95.3984 28.2324C95.7812 28.2324 96.1055 28.1543 96.3711 27.998C96.6367 27.8418 96.8691 27.6328 97.0684 27.3711L97.7246 27.8926C97.5879 28.0996 97.4141 28.2969 97.2031 28.4844C96.9922 28.6719 96.7324 28.8242 96.4238 28.9414C96.1191 29.0586 95.7578 29.1172 95.3398 29.1172ZM100.15 23.9199V29H99.0605V22.6602H100.092L100.15 23.9199ZM99.9277 25.5898L99.4238 25.5723C99.4277 25.1387 99.4844 24.7383 99.5938 24.3711C99.7031 24 99.8652 23.6777 100.08 23.4043C100.295 23.1309 100.562 22.9199 100.883 22.7715C101.203 22.6191 101.574 22.543 101.996 22.543C102.293 22.543 102.566 22.5859 102.816 22.6719C103.066 22.7539 103.283 22.8848 103.467 23.0645C103.65 23.2441 103.793 23.4746 103.895 23.7559C103.996 24.0371 104.047 24.377 104.047 24.7754V29H102.963V24.8281C102.963 24.4961 102.906 24.2305 102.793 24.0312C102.684 23.832 102.527 23.6875 102.324 23.5977C102.121 23.5039 101.883 23.457 101.609 23.457C101.289 23.457 101.021 23.5137 100.807 23.627C100.592 23.7402 100.42 23.8965 100.291 24.0957C100.162 24.2949 100.068 24.5234 100.01 24.7812C99.9551 25.0352 99.9277 25.3047 99.9277 25.5898ZM104.035 24.9922L103.309 25.2148C103.312 24.8672 103.369 24.5332 103.479 24.2129C103.592 23.8926 103.754 23.6074 103.965 23.3574C104.18 23.1074 104.443 22.9102 104.756 22.7656C105.068 22.6172 105.426 22.543 105.828 22.543C106.168 22.543 106.469 22.5879 106.73 22.6777C106.996 22.7676 107.219 22.9062 107.398 23.0938C107.582 23.2773 107.721 23.5137 107.814 23.8027C107.908 24.0918 107.955 24.4355 107.955 24.834V29H106.865V24.8223C106.865 24.4668 106.809 24.1914 106.695 23.9961C106.586 23.7969 106.43 23.6582 106.227 23.5801C106.027 23.498 105.789 23.457 105.512 23.457C105.273 23.457 105.062 23.498 104.879 23.5801C104.695 23.6621 104.541 23.7754 104.416 23.9199C104.291 24.0605 104.195 24.2227 104.129 24.4062C104.066 24.5898 104.035 24.7852 104.035 24.9922ZM113.334 27.916V24.6523C113.334 24.4023 113.283 24.1855 113.182 24.002C113.084 23.8145 112.936 23.6699 112.736 23.5684C112.537 23.4668 112.291 23.416 111.998 23.416C111.725 23.416 111.484 23.4629 111.277 23.5566C111.074 23.6504 110.914 23.7734 110.797 23.9258C110.684 24.0781 110.627 24.2422 110.627 24.418H109.543C109.543 24.1914 109.602 23.9668 109.719 23.7441C109.836 23.5215 110.004 23.3203 110.223 23.1406C110.445 22.957 110.711 22.8125 111.02 22.707C111.332 22.5977 111.68 22.543 112.062 22.543C112.523 22.543 112.93 22.6211 113.281 22.7773C113.637 22.9336 113.914 23.1699 114.113 23.4863C114.316 23.7988 114.418 24.1914 114.418 24.6641V27.6172C114.418 27.8281 114.436 28.0527 114.471 28.291C114.51 28.5293 114.566 28.7344 114.641 28.9062V29H113.51C113.455 28.875 113.412 28.709 113.381 28.502C113.35 28.291 113.334 28.0957 113.334 27.916ZM113.521 25.1562L113.533 25.918H112.438C112.129 25.918 111.854 25.9434 111.611 25.9941C111.369 26.041 111.166 26.1133 111.002 26.2109C110.838 26.3086 110.713 26.4316 110.627 26.5801C110.541 26.7246 110.498 26.8945 110.498 27.0898C110.498 27.2891 110.543 27.4707 110.633 27.6348C110.723 27.7988 110.857 27.9297 111.037 28.0273C111.221 28.1211 111.445 28.168 111.711 28.168C112.043 28.168 112.336 28.0977 112.59 27.957C112.844 27.8164 113.045 27.6445 113.193 27.4414C113.346 27.2383 113.428 27.041 113.439 26.8496L113.902 27.3711C113.875 27.5352 113.801 27.7168 113.68 27.916C113.559 28.1152 113.396 28.3066 113.193 28.4902C112.994 28.6699 112.756 28.8203 112.479 28.9414C112.205 29.0586 111.896 29.1172 111.553 29.1172C111.123 29.1172 110.746 29.0332 110.422 28.8652C110.102 28.6973 109.852 28.4727 109.672 28.1914C109.496 27.9062 109.408 27.5879 109.408 27.2363C109.408 26.8965 109.475 26.5977 109.607 26.3398C109.74 26.0781 109.932 25.8613 110.182 25.6895C110.432 25.5137 110.732 25.3809 111.084 25.291C111.436 25.2012 111.828 25.1562 112.262 25.1562H113.521ZM117.301 22.6602V29H116.211V22.6602H117.301ZM116.129 20.9785C116.129 20.8027 116.182 20.6543 116.287 20.5332C116.396 20.4121 116.557 20.3516 116.768 20.3516C116.975 20.3516 117.133 20.4121 117.242 20.5332C117.355 20.6543 117.412 20.8027 117.412 20.9785C117.412 21.1465 117.355 21.291 117.242 21.4121C117.133 21.5293 116.975 21.5879 116.768 21.5879C116.557 21.5879 116.396 21.5293 116.287 21.4121C116.182 21.291 116.129 21.1465 116.129 20.9785ZM120.219 20V29H119.129V20H120.219ZM128.674 27.916V24.6523C128.674 24.4023 128.623 24.1855 128.521 24.002C128.424 23.8145 128.275 23.6699 128.076 23.5684C127.877 23.4668 127.631 23.416 127.338 23.416C127.064 23.416 126.824 23.4629 126.617 23.5566C126.414 23.6504 126.254 23.7734 126.137 23.9258C126.023 24.0781 125.967 24.2422 125.967 24.418H124.883C124.883 24.1914 124.941 23.9668 125.059 23.7441C125.176 23.5215 125.344 23.3203 125.562 23.1406C125.785 22.957 126.051 22.8125 126.359 22.707C126.672 22.5977 127.02 22.543 127.402 22.543C127.863 22.543 128.27 22.6211 128.621 22.7773C128.977 22.9336 129.254 23.1699 129.453 23.4863C129.656 23.7988 129.758 24.1914 129.758 24.6641V27.6172C129.758 27.8281 129.775 28.0527 129.811 28.291C129.85 28.5293 129.906 28.7344 129.98 28.9062V29H128.85C128.795 28.875 128.752 28.709 128.721 28.502C128.689 28.291 128.674 28.0957 128.674 27.916ZM128.861 25.1562L128.873 25.918H127.777C127.469 25.918 127.193 25.9434 126.951 25.9941C126.709 26.041 126.506 26.1133 126.342 26.2109C126.178 26.3086 126.053 26.4316 125.967 26.5801C125.881 26.7246 125.838 26.8945 125.838 27.0898C125.838 27.2891 125.883 27.4707 125.973 27.6348C126.062 27.7988 126.197 27.9297 126.377 28.0273C126.561 28.1211 126.785 28.168 127.051 28.168C127.383 28.168 127.676 28.0977 127.93 27.957C128.184 27.8164 128.385 27.6445 128.533 27.4414C128.686 27.2383 128.768 27.041 128.779 26.8496L129.242 27.3711C129.215 27.5352 129.141 27.7168 129.02 27.916C128.898 28.1152 128.736 28.3066 128.533 28.4902C128.334 28.6699 128.096 28.8203 127.818 28.9414C127.545 29.0586 127.236 29.1172 126.893 29.1172C126.463 29.1172 126.086 29.0332 125.762 28.8652C125.441 28.6973 125.191 28.4727 125.012 28.1914C124.836 27.9062 124.748 27.5879 124.748 27.2363C124.748 26.8965 124.814 26.5977 124.947 26.3398C125.08 26.0781 125.271 25.8613 125.521 25.6895C125.771 25.5137 126.072 25.3809 126.424 25.291C126.775 25.2012 127.168 25.1562 127.602 25.1562H128.861ZM135.459 27.7695V20H136.549V29H135.553L135.459 27.7695ZM131.193 25.9004V25.7773C131.193 25.293 131.252 24.8535 131.369 24.459C131.49 24.0605 131.66 23.7188 131.879 23.4336C132.102 23.1484 132.365 22.9297 132.67 22.7773C132.979 22.6211 133.322 22.543 133.701 22.543C134.1 22.543 134.447 22.6133 134.744 22.7539C135.045 22.8906 135.299 23.0918 135.506 23.3574C135.717 23.6191 135.883 23.9355 136.004 24.3066C136.125 24.6777 136.209 25.0977 136.256 25.5664V26.1055C136.213 26.5703 136.129 26.9883 136.004 27.3594C135.883 27.7305 135.717 28.0469 135.506 28.3086C135.299 28.5703 135.045 28.7715 134.744 28.9121C134.443 29.0488 134.092 29.1172 133.689 29.1172C133.318 29.1172 132.979 29.0371 132.67 28.877C132.365 28.7168 132.102 28.4922 131.879 28.2031C131.66 27.9141 131.49 27.5742 131.369 27.1836C131.252 26.7891 131.193 26.3613 131.193 25.9004ZM132.283 25.7773V25.9004C132.283 26.2168 132.314 26.5137 132.377 26.791C132.443 27.0684 132.545 27.3125 132.682 27.5234C132.818 27.7344 132.992 27.9004 133.203 28.0215C133.414 28.1387 133.666 28.1973 133.959 28.1973C134.318 28.1973 134.613 28.1211 134.844 27.9688C135.078 27.8164 135.266 27.6152 135.406 27.3652C135.547 27.1152 135.656 26.8438 135.734 26.5508V25.1387C135.688 24.9238 135.619 24.7168 135.529 24.5176C135.443 24.3145 135.33 24.1348 135.189 23.9785C135.053 23.8184 134.883 23.6914 134.68 23.5977C134.48 23.5039 134.244 23.457 133.971 23.457C133.674 23.457 133.418 23.5195 133.203 23.6445C132.992 23.7656 132.818 23.9336 132.682 24.1484C132.545 24.3594 132.443 24.6055 132.377 24.8867C132.314 25.1641 132.283 25.4609 132.283 25.7773ZM142.232 27.7695V20H143.322V29H142.326L142.232 27.7695ZM137.967 25.9004V25.7773C137.967 25.293 138.025 24.8535 138.143 24.459C138.264 24.0605 138.434 23.7188 138.652 23.4336C138.875 23.1484 139.139 22.9297 139.443 22.7773C139.752 22.6211 140.096 22.543 140.475 22.543C140.873 22.543 141.221 22.6133 141.518 22.7539C141.818 22.8906 142.072 23.0918 142.279 23.3574C142.49 23.6191 142.656 23.9355 142.777 24.3066C142.898 24.6777 142.982 25.0977 143.029 25.5664V26.1055C142.986 26.5703 142.902 26.9883 142.777 27.3594C142.656 27.7305 142.49 28.0469 142.279 28.3086C142.072 28.5703 141.818 28.7715 141.518 28.9121C141.217 29.0488 140.865 29.1172 140.463 29.1172C140.092 29.1172 139.752 29.0371 139.443 28.877C139.139 28.7168 138.875 28.4922 138.652 28.2031C138.434 27.9141 138.264 27.5742 138.143 27.1836C138.025 26.7891 137.967 26.3613 137.967 25.9004ZM139.057 25.7773V25.9004C139.057 26.2168 139.088 26.5137 139.15 26.791C139.217 27.0684 139.318 27.3125 139.455 27.5234C139.592 27.7344 139.766 27.9004 139.977 28.0215C140.188 28.1387 140.439 28.1973 140.732 28.1973C141.092 28.1973 141.387 28.1211 141.617 27.9688C141.852 27.8164 142.039 27.6152 142.18 27.3652C142.32 27.1152 142.43 26.8438 142.508 26.5508V25.1387C142.461 24.9238 142.393 24.7168 142.303 24.5176C142.217 24.3145 142.104 24.1348 141.963 23.9785C141.826 23.8184 141.656 23.6914 141.453 23.5977C141.254 23.5039 141.018 23.457 140.744 23.457C140.447 23.457 140.191 23.5195 139.977 23.6445C139.766 23.7656 139.592 23.9336 139.455 24.1484C139.318 24.3594 139.217 24.6055 139.15 24.8867C139.088 25.1641 139.057 25.4609 139.057 25.7773ZM146.094 23.6562V29H145.01V22.6602H146.064L146.094 23.6562ZM148.074 22.625L148.068 23.6328C147.979 23.6133 147.893 23.6016 147.811 23.5977C147.732 23.5898 147.643 23.5859 147.541 23.5859C147.291 23.5859 147.07 23.625 146.879 23.7031C146.688 23.7812 146.525 23.8906 146.393 24.0312C146.26 24.1719 146.154 24.3398 146.076 24.5352C146.002 24.7266 145.953 24.9375 145.93 25.168L145.625 25.3438C145.625 24.9609 145.662 24.6016 145.736 24.2656C145.814 23.9297 145.934 23.6328 146.094 23.375C146.254 23.1133 146.457 22.9102 146.703 22.7656C146.953 22.6172 147.25 22.543 147.594 22.543C147.672 22.543 147.762 22.5527 147.863 22.5723C147.965 22.5879 148.035 22.6055 148.074 22.625ZM151.59 29.1172C151.148 29.1172 150.748 29.043 150.389 28.8945C150.033 28.7422 149.727 28.5293 149.469 28.2559C149.215 27.9824 149.02 27.6582 148.883 27.2832C148.746 26.9082 148.678 26.498 148.678 26.0527V25.8066C148.678 25.291 148.754 24.832 148.906 24.4297C149.059 24.0234 149.266 23.6797 149.527 23.3984C149.789 23.1172 150.086 22.9043 150.418 22.7598C150.75 22.6152 151.094 22.543 151.449 22.543C151.902 22.543 152.293 22.6211 152.621 22.7773C152.953 22.9336 153.225 23.1523 153.436 23.4336C153.646 23.7109 153.803 24.0391 153.904 24.418C154.006 24.793 154.057 25.2031 154.057 25.6484V26.1348H149.322V25.25H152.973V25.168C152.957 24.8867 152.898 24.6133 152.797 24.3477C152.699 24.082 152.543 23.8633 152.328 23.6914C152.113 23.5195 151.82 23.4336 151.449 23.4336C151.203 23.4336 150.977 23.4863 150.77 23.5918C150.562 23.6934 150.385 23.8457 150.236 24.0488C150.088 24.252 149.973 24.5 149.891 24.793C149.809 25.0859 149.768 25.4238 149.768 25.8066V26.0527C149.768 26.3535 149.809 26.6367 149.891 26.9023C149.977 27.1641 150.1 27.3945 150.26 27.5938C150.424 27.793 150.621 27.9492 150.852 28.0625C151.086 28.1758 151.352 28.2324 151.648 28.2324C152.031 28.2324 152.355 28.1543 152.621 27.998C152.887 27.8418 153.119 27.6328 153.318 27.3711L153.975 27.8926C153.838 28.0996 153.664 28.2969 153.453 28.4844C153.242 28.6719 152.982 28.8242 152.674 28.9414C152.369 29.0586 152.008 29.1172 151.59 29.1172ZM159.014 27.3184C159.014 27.1621 158.979 27.0176 158.908 26.8848C158.842 26.748 158.703 26.625 158.492 26.5156C158.285 26.4023 157.973 26.3047 157.555 26.2227C157.203 26.1484 156.885 26.0605 156.6 25.959C156.318 25.8574 156.078 25.7344 155.879 25.5898C155.684 25.4453 155.533 25.2754 155.428 25.0801C155.322 24.8848 155.27 24.6562 155.27 24.3945C155.27 24.1445 155.324 23.9082 155.434 23.6855C155.547 23.4629 155.705 23.2656 155.908 23.0938C156.115 22.9219 156.363 22.7871 156.652 22.6895C156.941 22.5918 157.264 22.543 157.619 22.543C158.127 22.543 158.561 22.6328 158.92 22.8125C159.279 22.9922 159.555 23.2324 159.746 23.5332C159.938 23.8301 160.033 24.1602 160.033 24.5234H158.949C158.949 24.3477 158.896 24.1777 158.791 24.0137C158.689 23.8457 158.539 23.707 158.34 23.5977C158.145 23.4883 157.904 23.4336 157.619 23.4336C157.318 23.4336 157.074 23.4805 156.887 23.5742C156.703 23.6641 156.568 23.7793 156.482 23.9199C156.4 24.0605 156.359 24.209 156.359 24.3652C156.359 24.4824 156.379 24.5879 156.418 24.6816C156.461 24.7715 156.535 24.8555 156.641 24.9336C156.746 25.0078 156.895 25.0781 157.086 25.1445C157.277 25.2109 157.521 25.2773 157.818 25.3438C158.338 25.4609 158.766 25.6016 159.102 25.7656C159.438 25.9297 159.688 26.1309 159.852 26.3691C160.016 26.6074 160.098 26.8965 160.098 27.2363C160.098 27.5137 160.039 27.7676 159.922 27.998C159.809 28.2285 159.643 28.4277 159.424 28.5957C159.209 28.7598 158.951 28.8887 158.65 28.9824C158.354 29.0723 158.02 29.1172 157.648 29.1172C157.09 29.1172 156.617 29.0176 156.23 28.8184C155.844 28.6191 155.551 28.3613 155.352 28.0449C155.152 27.7285 155.053 27.3945 155.053 27.043H156.143C156.158 27.3398 156.244 27.5762 156.4 27.752C156.557 27.9238 156.748 28.0469 156.975 28.1211C157.201 28.1914 157.426 28.2266 157.648 28.2266C157.945 28.2266 158.193 28.1875 158.393 28.1094C158.596 28.0312 158.75 27.9238 158.855 27.7871C158.961 27.6504 159.014 27.4941 159.014 27.3184ZM165.213 27.3184C165.213 27.1621 165.178 27.0176 165.107 26.8848C165.041 26.748 164.902 26.625 164.691 26.5156C164.484 26.4023 164.172 26.3047 163.754 26.2227C163.402 26.1484 163.084 26.0605 162.799 25.959C162.518 25.8574 162.277 25.7344 162.078 25.5898C161.883 25.4453 161.732 25.2754 161.627 25.0801C161.521 24.8848 161.469 24.6562 161.469 24.3945C161.469 24.1445 161.523 23.9082 161.633 23.6855C161.746 23.4629 161.904 23.2656 162.107 23.0938C162.314 22.9219 162.562 22.7871 162.852 22.6895C163.141 22.5918 163.463 22.543 163.818 22.543C164.326 22.543 164.76 22.6328 165.119 22.8125C165.479 22.9922 165.754 23.2324 165.945 23.5332C166.137 23.8301 166.232 24.1602 166.232 24.5234H165.148C165.148 24.3477 165.096 24.1777 164.99 24.0137C164.889 23.8457 164.738 23.707 164.539 23.5977C164.344 23.4883 164.104 23.4336 163.818 23.4336C163.518 23.4336 163.273 23.4805 163.086 23.5742C162.902 23.6641 162.768 23.7793 162.682 23.9199C162.6 24.0605 162.559 24.209 162.559 24.3652C162.559 24.4824 162.578 24.5879 162.617 24.6816C162.66 24.7715 162.734 24.8555 162.84 24.9336C162.945 25.0078 163.094 25.0781 163.285 25.1445C163.477 25.2109 163.721 25.2773 164.018 25.3438C164.537 25.4609 164.965 25.6016 165.301 25.7656C165.637 25.9297 165.887 26.1309 166.051 26.3691C166.215 26.6074 166.297 26.8965 166.297 27.2363C166.297 27.5137 166.238 27.7676 166.121 27.998C166.008 28.2285 165.842 28.4277 165.623 28.5957C165.408 28.7598 165.15 28.8887 164.85 28.9824C164.553 29.0723 164.219 29.1172 163.848 29.1172C163.289 29.1172 162.816 29.0176 162.43 28.8184C162.043 28.6191 161.75 28.3613 161.551 28.0449C161.352 27.7285 161.252 27.3945 161.252 27.043H162.342C162.357 27.3398 162.443 27.5762 162.6 27.752C162.756 27.9238 162.947 28.0469 163.174 28.1211C163.4 28.1914 163.625 28.2266 163.848 28.2266C164.145 28.2266 164.393 28.1875 164.592 28.1094C164.795 28.0312 164.949 27.9238 165.055 27.7871C165.16 27.6504 165.213 27.4941 165.213 27.3184Z" fill="#817F83"/>
<path d="M424.537 26.8438C424.537 26.6445 424.506 26.4688 424.443 26.3164C424.385 26.1602 424.279 26.0195 424.127 25.8945C423.979 25.7695 423.771 25.6504 423.506 25.5371C423.244 25.4238 422.912 25.3086 422.51 25.1914C422.088 25.0664 421.707 24.9277 421.367 24.7754C421.027 24.6191 420.736 24.4414 420.494 24.2422C420.252 24.043 420.066 23.8145 419.938 23.5566C419.809 23.2988 419.744 23.0039 419.744 22.6719C419.744 22.3398 419.812 22.0332 419.949 21.752C420.086 21.4707 420.281 21.2266 420.535 21.0195C420.793 20.8086 421.1 20.6445 421.455 20.5273C421.811 20.4102 422.207 20.3516 422.645 20.3516C423.285 20.3516 423.828 20.4746 424.273 20.7207C424.723 20.9629 425.064 21.2812 425.299 21.6758C425.533 22.0664 425.65 22.4844 425.65 22.9297H424.525C424.525 22.6094 424.457 22.3262 424.32 22.0801C424.184 21.8301 423.977 21.6348 423.699 21.4941C423.422 21.3496 423.07 21.2773 422.645 21.2773C422.242 21.2773 421.91 21.3379 421.648 21.459C421.387 21.5801 421.191 21.7441 421.062 21.9512C420.938 22.1582 420.875 22.3945 420.875 22.6602C420.875 22.8398 420.912 23.0039 420.986 23.1523C421.064 23.2969 421.184 23.4316 421.344 23.5566C421.508 23.6816 421.715 23.7969 421.965 23.9023C422.219 24.0078 422.521 24.1094 422.873 24.207C423.357 24.3438 423.775 24.4961 424.127 24.6641C424.479 24.832 424.768 25.0215 424.994 25.2324C425.225 25.4395 425.395 25.6758 425.504 25.9414C425.617 26.2031 425.674 26.5 425.674 26.832C425.674 27.1797 425.604 27.4941 425.463 27.7754C425.322 28.0566 425.121 28.2969 424.859 28.4961C424.598 28.6953 424.283 28.8496 423.916 28.959C423.553 29.0645 423.146 29.1172 422.697 29.1172C422.303 29.1172 421.914 29.0625 421.531 28.9531C421.152 28.8438 420.807 28.6797 420.494 28.4609C420.186 28.2422 419.938 27.9727 419.75 27.6523C419.566 27.3281 419.475 26.9531 419.475 26.5273H420.6C420.6 26.8203 420.656 27.0723 420.77 27.2832C420.883 27.4902 421.037 27.6621 421.232 27.7988C421.432 27.9355 421.656 28.0371 421.906 28.1035C422.16 28.166 422.424 28.1973 422.697 28.1973C423.092 28.1973 423.426 28.1426 423.699 28.0332C423.973 27.9238 424.18 27.7676 424.32 27.5645C424.465 27.3613 424.537 27.1211 424.537 26.8438ZM430.83 27.5352V22.6602H431.92V29H430.883L430.83 27.5352ZM431.035 26.1992L431.486 26.1875C431.486 26.6094 431.441 27 431.352 27.3594C431.266 27.7148 431.125 28.0234 430.93 28.2852C430.734 28.5469 430.479 28.752 430.162 28.9004C429.846 29.0449 429.461 29.1172 429.008 29.1172C428.699 29.1172 428.416 29.0723 428.158 28.9824C427.904 28.8926 427.686 28.7539 427.502 28.5664C427.318 28.3789 427.176 28.1348 427.074 27.834C426.977 27.5332 426.928 27.1719 426.928 26.75V22.6602H428.012V26.7617C428.012 27.0469 428.043 27.2832 428.105 27.4707C428.172 27.6543 428.26 27.8008 428.369 27.9102C428.482 28.0156 428.607 28.0898 428.744 28.1328C428.885 28.1758 429.029 28.1973 429.178 28.1973C429.639 28.1973 430.004 28.1094 430.273 27.9336C430.543 27.7539 430.736 27.5137 430.854 27.2129C430.975 26.9082 431.035 26.5703 431.035 26.1992ZM433.566 20H434.656V27.7695L434.562 29H433.566V20ZM438.939 25.7773V25.9004C438.939 26.3613 438.885 26.7891 438.775 27.1836C438.666 27.5742 438.506 27.9141 438.295 28.2031C438.084 28.4922 437.826 28.7168 437.521 28.877C437.217 29.0371 436.867 29.1172 436.473 29.1172C436.07 29.1172 435.717 29.0488 435.412 28.9121C435.111 28.7715 434.857 28.5703 434.65 28.3086C434.443 28.0469 434.277 27.7305 434.152 27.3594C434.031 26.9883 433.947 26.5703 433.9 26.1055V25.5664C433.947 25.0977 434.031 24.6777 434.152 24.3066C434.277 23.9355 434.443 23.6191 434.65 23.3574C434.857 23.0918 435.111 22.8906 435.412 22.7539C435.713 22.6133 436.062 22.543 436.461 22.543C436.859 22.543 437.213 22.6211 437.521 22.7773C437.83 22.9297 438.088 23.1484 438.295 23.4336C438.506 23.7188 438.666 24.0605 438.775 24.459C438.885 24.8535 438.939 25.293 438.939 25.7773ZM437.85 25.9004V25.7773C437.85 25.4609 437.82 25.1641 437.762 24.8867C437.703 24.6055 437.609 24.3594 437.48 24.1484C437.352 23.9336 437.182 23.7656 436.971 23.6445C436.76 23.5195 436.5 23.457 436.191 23.457C435.918 23.457 435.68 23.5039 435.477 23.5977C435.277 23.6914 435.107 23.8184 434.967 23.9785C434.826 24.1348 434.711 24.3145 434.621 24.5176C434.535 24.7168 434.471 24.9238 434.428 25.1387V26.5508C434.49 26.8242 434.592 27.0879 434.732 27.3418C434.877 27.5918 435.068 27.7969 435.307 27.957C435.549 28.1172 435.848 28.1973 436.203 28.1973C436.496 28.1973 436.746 28.1387 436.953 28.0215C437.164 27.9004 437.334 27.7344 437.463 27.5234C437.596 27.3125 437.693 27.0684 437.756 26.791C437.818 26.5137 437.85 26.2168 437.85 25.9004ZM441.389 23.9199V29H440.299V22.6602H441.33L441.389 23.9199ZM441.166 25.5898L440.662 25.5723C440.666 25.1387 440.723 24.7383 440.832 24.3711C440.941 24 441.104 23.6777 441.318 23.4043C441.533 23.1309 441.801 22.9199 442.121 22.7715C442.441 22.6191 442.812 22.543 443.234 22.543C443.531 22.543 443.805 22.5859 444.055 22.6719C444.305 22.7539 444.521 22.8848 444.705 23.0645C444.889 23.2441 445.031 23.4746 445.133 23.7559C445.234 24.0371 445.285 24.377 445.285 24.7754V29H444.201V24.8281C444.201 24.4961 444.145 24.2305 444.031 24.0312C443.922 23.832 443.766 23.6875 443.562 23.5977C443.359 23.5039 443.121 23.457 442.848 23.457C442.527 23.457 442.26 23.5137 442.045 23.627C441.83 23.7402 441.658 23.8965 441.529 24.0957C441.4 24.2949 441.307 24.5234 441.248 24.7812C441.193 25.0352 441.166 25.3047 441.166 25.5898ZM445.273 24.9922L444.547 25.2148C444.551 24.8672 444.607 24.5332 444.717 24.2129C444.83 23.8926 444.992 23.6074 445.203 23.3574C445.418 23.1074 445.682 22.9102 445.994 22.7656C446.307 22.6172 446.664 22.543 447.066 22.543C447.406 22.543 447.707 22.5879 447.969 22.6777C448.234 22.7676 448.457 22.9062 448.637 23.0938C448.82 23.2773 448.959 23.5137 449.053 23.8027C449.146 24.0918 449.193 24.4355 449.193 24.834V29H448.104V24.8223C448.104 24.4668 448.047 24.1914 447.934 23.9961C447.824 23.7969 447.668 23.6582 447.465 23.5801C447.266 23.498 447.027 23.457 446.75 23.457C446.512 23.457 446.301 23.498 446.117 23.5801C445.934 23.6621 445.779 23.7754 445.654 23.9199C445.529 24.0605 445.434 24.2227 445.367 24.4062C445.305 24.5898 445.273 24.7852 445.273 24.9922ZM452.012 22.6602V29H450.922V22.6602H452.012ZM450.84 20.9785C450.84 20.8027 450.893 20.6543 450.998 20.5332C451.107 20.4121 451.268 20.3516 451.479 20.3516C451.686 20.3516 451.844 20.4121 451.953 20.5332C452.066 20.6543 452.123 20.8027 452.123 20.9785C452.123 21.1465 452.066 21.291 451.953 21.4121C451.844 21.5293 451.686 21.5879 451.479 21.5879C451.268 21.5879 451.107 21.5293 450.998 21.4121C450.893 21.291 450.84 21.1465 450.84 20.9785ZM456.406 22.6602V23.4922H452.979V22.6602H456.406ZM454.139 21.1191H455.223V27.4297C455.223 27.6445 455.256 27.8066 455.322 27.916C455.389 28.0254 455.475 28.0977 455.58 28.1328C455.686 28.168 455.799 28.1855 455.92 28.1855C456.01 28.1855 456.104 28.1777 456.201 28.1621C456.303 28.1426 456.379 28.127 456.43 28.1152L456.436 29C456.35 29.0273 456.236 29.0527 456.096 29.0762C455.959 29.1035 455.793 29.1172 455.598 29.1172C455.332 29.1172 455.088 29.0645 454.865 28.959C454.643 28.8535 454.465 28.6777 454.332 28.4316C454.203 28.1816 454.139 27.8457 454.139 27.4238V21.1191Z" fill="#F8F8F8"/>
</svg>
